<?xml version="1.0" standalone="no"?>
<!DOCTYPE svg PUBLIC "-//W3C//DTD SVG 20010904//EN"
 "http://www.w3.org/TR/2001/REC-SVG-20010904/DTD/svg10.dtd">
<svg version="1.0" xmlns="http://www.w3.org/2000/svg"
 width="500.000000pt" height="500.000000pt" viewBox="0 0 500.000000 500.000000"
 preserveAspectRatio="xMidYMid meet">

<g transform="translate(0.000000,500.000000) scale(0.100000,-0.100000)"
fill="#000000" stroke="none">
<path d="M2315 4894 c-16 -2 -73 -9 -125 -15 -410 -49 -829 -223 -1167 -486
-115 -88 -331 -304 -418 -418 -191 -249 -330 -527 -425 -850 -11 -38 -45 -206
-62 -310 -8 -51 -13 -165 -13 -315 1 -276 14 -377 84 -655 10 -42 62 -185 105
-293 79 -199 267 -487 442 -679 141 -155 389 -352 564 -450 30 -17 73 -41 95
-53 194 -108 503 -208 765 -246 161 -24 522 -24 680 0 914 139 1659 768 1945
1641 42 129 67 235 91 392 24 152 24 535 1 688 -30 192 -89 404 -160 580 -7
16 -42 88 -78 160 -121 240 -247 414 -444 610 -193 193 -374 327 -596 440
-236 120 -475 196 -769 244 -73 12 -455 23 -515 15z m1223 -1073 c2 -197 -1
-256 -10 -263 -7 -4 -66 -8 -130 -8 l-118 0 0 -76 c0 -41 -5 -130 -10 -197 -6
-67 -14 -176 -20 -242 -17 -212 -60 -699 -65 -735 -13 -104 -16 -415 -6 -515
20 -184 30 -227 74 -309 89 -167 255 -229 458 -171 153 43 254 196 268 403 1
8 21 12 67 12 l66 0 -7 -72 c-29 -298 -163 -597 -338 -752 -34 -31 -66 -56
-71 -56 -5 0 -24 -11 -42 -25 -112 -86 -381 -109 -564 -48 -283 94 -439 342
-440 698 0 135 15 414 30 550 5 50 12 122 15 160 3 39 7 88 10 110 2 22 7 81
10 130 3 50 10 131 15 180 6 50 17 155 25 235 22 203 54 614 55 703 l0 27
-382 -2 -383 -3 -12 -130 c-7 -71 -19 -213 -28 -315 -8 -102 -19 -237 -25
-300 -5 -63 -14 -176 -20 -250 -5 -74 -15 -182 -20 -240 -6 -58 -15 -145 -20
-195 -72 -747 -143 -1050 -290 -1237 -69 -88 -135 -129 -241 -149 -114 -21
-198 -5 -295 56 -105 67 -164 175 -172 312 -4 68 -2 77 35 150 22 43 69 119
105 168 292 405 416 647 515 1000 47 170 100 437 109 552 2 38 9 95 14 128 5
33 12 149 16 258 l7 197 -34 1 c-19 0 -45 2 -59 4 -90 11 -296 -5 -386 -30
-175 -51 -294 -158 -417 -375 -59 -104 -59 -103 -117 -98 -28 3 -53 7 -55 10
-3 2 18 63 45 134 28 71 76 194 106 274 68 175 133 295 194 359 133 138 409
213 845 230 105 4 528 7 940 7 l750 -1 3 -254z"/>
</g>
</svg>
